<svg width="24" height="24" viewBox="0 0 24 24" fill="none" xmlns="http://www.w3.org/2000/svg">
<path fill-rule="evenodd" clip-rule="evenodd" d="M19.7855 17.0008C19.7855 18.3415 18.6987 19.4283 17.3532 19.4283H7.64667C6.30237 19.4283 5.21441 18.3413 5.21441 17.0008V6.07133H8.85723V8.49995C8.85723 8.83516 9.12923 9.10715 9.46444 9.10715C9.79945 9.10695 10.0714 8.83496 10.0714 8.49995V6.07133H14.9285L14.9287 8.49995C14.9287 8.83516 15.2007 9.10715 15.5359 9.10715C15.8709 9.10695 16.1429 8.83496 16.1429 8.49995V6.07133H19.7857L19.7855 17.0008ZM10.0711 3.64261C10.0711 2.30075 11.1579 1.214 12.4997 1.214C13.8416 1.214 14.9284 2.30075 14.9284 3.64261V4.85702H10.0711V3.64261ZM16.1427 4.85702V3.64282C16.1427 1.63073 14.5119 0 12.4998 0C10.4878 0 8.85702 1.63073 8.85702 3.64282V4.85702H4V17.0011C4 19.012 5.63318 20.6428 7.64646 20.6428H17.3535C19.3705 20.6428 21 19.012 21 17.0011L20.9998 4.85702H16.1427Z" fill="#1B2530"/>
</svg>
