<svg width="12" height="9" viewBox="0 0 12 9" fill="none" xmlns="http://www.w3.org/2000/svg">
<path d="M11.7251 0.248045C11.6457 0.169448 11.5513 0.107064 11.4472 0.0644909C11.3432 0.0219183 11.2316 0 11.1189 0C11.0062 0 10.8946 0.0219183 10.7905 0.0644909C10.6865 0.107064 10.592 0.169448 10.5126 0.248045L4.15139 6.50371L1.47882 3.87063C1.3964 3.79244 1.29911 3.73096 1.1925 3.6897C1.08589 3.64844 0.972054 3.62821 0.857483 3.63015C0.742911 3.6321 0.629852 3.65619 0.524761 3.70105C0.419669 3.7459 0.324603 3.81065 0.244991 3.89159C0.165378 3.97253 0.102779 4.06808 0.0607656 4.17278C0.0187524 4.27747 -0.00185163 4.38927 0.000130571 4.50179C0.00211277 4.61431 0.0266423 4.72534 0.0723181 4.82855C0.117994 4.93176 0.183922 5.02513 0.266338 5.10331L3.54515 8.32338C3.62453 8.40198 3.71897 8.46437 3.82302 8.50694C3.92707 8.54951 4.03867 8.57143 4.15139 8.57143C4.26411 8.57143 4.37572 8.54951 4.47977 8.50694C4.58382 8.46437 4.67826 8.40198 4.75763 8.32338L11.7251 1.48073C11.8118 1.4022 11.881 1.3069 11.9283 1.20082C11.9756 1.09475 12 0.980194 12 0.864387C12 0.74858 11.9756 0.634029 11.9283 0.527951C11.881 0.421874 11.8118 0.32657 11.7251 0.248045Z" fill="black"/>
</svg>
