<svg width="24" height="24" viewBox="0 0 24 24" fill="#1B2530" xmlns="http://www.w3.org/2000/svg">
<path d="M5.21598 17.7415L10.9574 12L5.21598 6.25855C5.02972 6.07229 4.95695 5.8008 5.02516 5.54644C5.09324 5.29197 5.29196 5.09324 5.54644 5.02516C5.80079 4.95694 6.07227 5.02972 6.25855 5.21598L12 10.9574L17.7415 5.21598C17.9277 5.02972 18.1992 4.95695 18.4536 5.02516C18.708 5.09324 18.9068 5.29196 18.9748 5.54644C19.0431 5.80079 18.9703 6.07227 18.784 6.25855L13.0426 12L18.784 17.7415C18.9703 17.9277 19.0431 18.1992 18.9748 18.4536C18.9068 18.708 18.708 18.9068 18.4536 18.9748C18.1992 19.0431 17.9277 18.9703 17.7415 18.784L12 13.0426L6.25855 18.784C6.07229 18.9703 5.8008 19.0431 5.54644 18.9748C5.29197 18.9068 5.09324 18.708 5.02516 18.4536C4.95694 18.1992 5.02972 17.9277 5.21598 17.7415Z" fill="#F3F3EA"/>
</svg>
