<svg width="24" height="24" viewBox="0 0 24 24" fill="none" xmlns="http://www.w3.org/2000/svg">
<path d="M17.2644 19.8431C17.6705 20.1382 18 20.0061 18 19.5389V3.83812C18 3.37534 17.5728 3 17.0384 3H6.96164C6.43061 3 6 3.37093 6 3.83812V19.5389C6 20.002 6.33115 20.1367 6.73561 19.8431L11.4463 16.4242C11.7523 16.2023 12.2502 16.2041 12.5539 16.4242L17.2644 19.8431Z" fill="#1B2530"/>
<path d="M6.9615 3.41788C6.69062 3.41788 6.48002 3.60655 6.48002 3.83925V19.063C6.48002 19.2987 6.64575 19.364 6.85067 19.2156L11.2613 16.0146C11.6711 15.7168 12.3307 15.7183 12.7386 16.0146L17.1492 19.2156C17.3548 19.3646 17.5199 19.2957 17.5199 19.063L17.5197 3.83925C17.5197 3.60393 17.3044 3.41788 17.0382 3.41788M17.2644 19.8431C17.6705 20.1382 18 20.0061 18 19.5389V3.83812C18 3.37534 17.5728 3 17.0384 3H6.96164C6.43061 3 6 3.37093 6 3.83812V19.5389C6 20.002 6.33115 20.1367 6.73561 19.8431L11.4463 16.4242C11.7523 16.2023 12.2502 16.2041 12.5539 16.4242L17.2644 19.8431Z" stroke="#1B2530" stroke-width="0.8"/>
</svg>
