<svg width="24" height="24" viewBox="0 0 24 24" fill="none" xmlns="http://www.w3.org/2000/svg">
<path fill-rule="evenodd" clip-rule="evenodd" d="M5.6001 3.83822C5.6001 3.09899 6.26464 2.6001 6.96174 2.6001H17.0385C17.7413 2.6001 18.4001 3.1055 18.4001 3.83822V19.539C18.4001 19.8497 18.2853 20.2041 17.9362 20.3471C17.6131 20.4794 17.2773 20.3469 17.0295 20.1669L12.3192 16.7482C12.2479 16.6965 12.1338 16.6587 12.0006 16.6586C11.8676 16.6584 11.7534 16.6958 11.6813 16.7481M11.6813 16.7481L6.97071 20.1669C6.72185 20.3475 6.38615 20.4773 6.06404 20.3448C5.717 20.202 5.6001 19.8504 5.6001 19.539V3.83822M6.88011 3.84502V18.7001L11.0263 15.691C11.3114 15.4839 11.6652 15.3917 12.0011 15.3919C12.3368 15.3921 12.6899 15.4848 12.9738 15.691L17.12 18.7001L17.1198 3.8456C17.1198 3.8456 17.1177 3.84337 17.116 3.84193C17.1048 3.83216 17.0789 3.81798 17.0383 3.81798H6.96159C6.91893 3.81798 6.89383 3.8326 6.88377 3.84147C6.88211 3.84293 6.88011 3.84502 6.88011 3.84502Z" fill="#F3F3EA"/>
</svg>
