<svg width="20" height="20" viewBox="0 0 20 20" fill="none" xmlns="http://www.w3.org/2000/svg">
<path d="M9.62981 15.0114C4.55208 15.0114 0.518897 9.99191 0.34496 9.7886L0.228745 9.58549L0.373742 9.41135C0.547883 9.20825 4.581 4.1886 9.65859 4.1886C14.7363 4.1886 18.7695 9.20804 18.9434 9.41135L19.0884 9.58549L18.9147 9.75964C18.7407 9.9917 14.7076 15.0114 9.62981 15.0114ZM0.954438 9.58528C1.7379 10.4848 5.36477 14.4308 9.62981 14.4308C13.8948 14.4308 17.5222 10.4848 18.3052 9.58528C17.5219 8.6858 13.8948 4.73978 9.62981 4.73978C5.36477 4.73978 1.73738 8.6858 0.954438 9.58528Z" fill="#1B2530"/>
<path fill-rule="evenodd" clip-rule="evenodd" d="M0.517888 9.53298L0.457489 9.60552L0.500212 9.68018C0.503891 9.68458 0.508131 9.68967 0.512928 9.69542C0.697944 9.91738 1.71133 11.1331 3.26343 12.3267C4.90801 13.5915 7.13467 14.8136 9.60205 14.8227H9.62981C12.1082 14.8227 14.3454 13.5961 15.996 12.3232C17.6444 11.0518 18.6846 9.75208 18.7637 9.64652L18.7717 9.63585L18.8335 9.57401L18.8001 9.53396L18.7992 9.53286C18.7941 9.52687 18.7862 9.51736 18.7755 9.50453C18.5904 9.28257 17.5771 8.06687 16.025 6.87323C14.3742 5.60373 12.137 4.37719 9.65859 4.37719C7.18023 4.37719 4.94308 5.60378 3.29235 6.87331C1.74268 8.0651 0.730056 9.27882 0.542501 9.50361C0.531371 9.51695 0.523147 9.52681 0.517888 9.53298ZM9.8184 15.1977V15.2H9.62981C7.03051 15.2 4.71225 13.9168 3.03349 12.6257C1.44795 11.4064 0.412416 10.1639 0.226151 9.94044C0.214818 9.92684 0.206629 9.91702 0.201651 9.9112L0.190095 9.89769L0 9.56547L0.230551 9.28858C0.235646 9.28264 0.244126 9.27251 0.255889 9.2584C0.444339 9.03249 1.47922 7.79188 3.0624 6.57431C4.74115 5.28324 7.05936 4 9.65859 4C12.2579 4 14.5761 5.28318 16.2549 6.57423C17.8404 7.79359 18.876 9.03602 19.0622 9.25951C19.0736 9.27311 19.0818 9.28293 19.0867 9.28875L19.0884 9.29066L19.3434 9.59698L19.0571 9.88393C18.9193 10.063 17.867 11.3565 16.2263 12.6218C14.5882 13.8853 12.3412 15.1377 9.8184 15.1977ZM3.87669 6.67178C5.42903 5.56248 7.44088 4.55118 9.62981 4.55118C11.8187 4.55118 13.8305 5.56248 15.3828 6.67178C16.9376 7.7829 18.0513 9.00654 18.4474 9.46143L18.5552 9.58526L18.4474 9.70911C18.0514 10.164 16.9378 11.3877 15.3829 12.4988C13.8306 13.6081 11.8187 14.6194 9.62981 14.6194C7.44087 14.6194 5.42916 13.6081 3.87688 12.4988C2.32206 11.3877 1.20842 10.164 0.812224 9.70916L0.704366 9.58533L0.812183 9.46146C1.20817 9.00654 2.32181 7.7829 3.87669 6.67178ZM1.20573 9.58525C1.66544 10.1015 2.69989 11.1941 4.09619 12.1919C5.61947 13.2805 7.55371 14.2422 9.62981 14.2422C11.7059 14.2422 13.6403 13.2805 15.1636 12.1919C16.56 11.1941 17.5944 10.1016 18.0539 9.5853C17.5943 9.06904 16.5598 7.9765 15.1635 6.97867C13.6402 5.89009 11.7059 4.92838 9.62981 4.92838C7.55371 4.92838 5.61934 5.89009 4.09599 6.97867C2.69966 7.97649 1.66522 9.069 1.20573 9.58525Z" fill="#1B2530"/>
<path d="M9.6298 13.5896C7.42463 13.5896 5.62567 11.7906 5.62567 9.58545C5.62567 7.38028 7.42463 5.58132 9.6298 5.58132C11.835 5.58132 13.6339 7.38028 13.6339 9.58545C13.6339 11.7906 11.835 13.5896 9.6298 13.5896ZM9.6298 6.16161C7.74378 6.16161 6.20601 7.69938 6.20601 9.5854C6.20601 11.4714 7.74378 13.0092 9.6298 13.0092C11.5158 13.0092 13.0536 11.4714 13.0536 9.5854C13.0536 7.69938 11.5158 6.16161 9.6298 6.16161Z" fill="#1B2530"/>
<path fill-rule="evenodd" clip-rule="evenodd" d="M9.6298 5.76992C7.52879 5.76992 5.81427 7.48444 5.81427 9.58545C5.81427 11.6865 7.52879 13.401 9.6298 13.401C11.7308 13.401 13.4453 11.6865 13.4453 9.58545C13.4453 7.48444 11.7308 5.76992 9.6298 5.76992ZM5.43708 9.58545C5.43708 7.27612 7.32047 5.39272 9.6298 5.39272C11.9391 5.39272 13.8225 7.27612 13.8225 9.58545C13.8225 11.8948 11.9391 13.7782 9.6298 13.7782C7.32047 13.7782 5.43708 11.8948 5.43708 9.58545ZM6.01741 9.5854C6.01741 7.59522 7.63962 5.97301 9.6298 5.97301C11.62 5.97301 13.2422 7.59522 13.2422 9.5854C13.2422 11.5756 11.62 13.1978 9.6298 13.1978C7.63962 13.1978 6.01741 11.5756 6.01741 9.5854ZM9.6298 6.3502C7.84794 6.3502 6.3946 7.80354 6.3946 9.5854C6.3946 11.3673 7.84794 12.8206 9.6298 12.8206C11.4117 12.8206 12.865 11.3673 12.865 9.5854C12.865 7.80354 11.4117 6.3502 9.6298 6.3502Z" fill="#1B2530"/>
<path fill-rule="evenodd" clip-rule="evenodd" d="M1.89137 16.7948L16.3431 2.3431L17 3L2.54827 17.4517L1.89137 16.7948Z" fill="#1B2530"/>
</svg>
