<svg width="120" height="61" viewBox="0 0 120 61" fill="none" xmlns="http://www.w3.org/2000/svg">
<g clip-path="url(#clip0_3497_2564)">
<mask id="mask0_3497_2564" style="mask-type:luminance" maskUnits="userSpaceOnUse" x="0" y="0" width="58" height="31">
<path d="M0 0.776367H57.0998V30.6464H0V0.776367Z" fill="#396994"/>
</mask>
<g mask="url(#mask0_3497_2564)">
<path fill-rule="evenodd" clip-rule="evenodd" d="M40.8892 28.0545C42.7269 28.0545 44.4483 27.7045 46.0528 27.0049C47.6571 26.3057 49.0559 25.3733 50.2487 24.2071C51.4426 23.0413 52.3882 21.7048 53.0881 20.1956C53.7876 18.6876 54.1371 17.1243 54.1371 15.5057C54.1371 13.8876 53.7876 12.324 53.0881 10.8152C52.3882 9.30743 51.4426 7.97028 50.2487 6.80346C49.0559 5.6383 47.6571 4.70512 46.0528 4.00614C44.4483 3.30632 42.7269 2.95655 40.8892 2.95655C39.0511 2.95655 37.3299 3.30632 35.7254 4.00614C34.1211 4.70512 32.7215 5.6383 31.529 6.80346C30.3356 7.97028 29.3892 9.30743 28.6902 10.8152C27.9906 12.324 27.6409 13.8876 27.6409 15.5057C27.6409 17.1243 27.9906 18.6876 28.6902 20.1956C29.3892 21.7048 30.3356 23.0413 31.529 24.2071C32.7215 25.3733 34.1211 26.3057 35.7254 27.0049C37.3299 27.7045 39.0511 28.0545 40.8892 28.0545ZM40.8892 0.776367C43.1372 0.776367 45.243 1.16678 47.2042 1.94927C49.1654 2.73065 50.8799 3.8007 52.3473 5.15803C53.8139 6.51591 54.9729 8.09941 55.824 9.90992C56.6737 11.7204 57.0998 13.654 57.0998 15.7114C57.0998 17.7683 56.6737 19.709 55.824 21.533C54.9729 23.3574 53.8139 24.942 52.3473 26.2849C50.8799 27.6293 49.1654 28.6919 47.2042 29.4738C45.243 30.2557 43.1372 30.6464 40.8892 30.6464C38.6391 30.6464 36.5336 30.2557 34.5727 29.4738C32.6123 28.6919 30.8983 27.6293 29.4304 26.2849C27.9633 24.942 26.8042 23.3574 25.954 21.533C25.1032 19.709 24.6785 17.7683 24.6785 15.7114C24.6785 13.654 25.1032 11.7204 25.954 9.90992C26.8042 8.09941 27.9633 6.51591 29.4304 5.15803C30.8983 3.8007 32.6123 2.73065 34.5727 1.94927C36.5336 1.16678 38.6391 0.776367 40.8892 0.776367Z" fill="#396994"/>
</g>
<path fill-rule="evenodd" clip-rule="evenodd" d="M13.1491 1.01855H0.395348L-0.0163574 6.07929L2.32807 3.73404H10.0227V27.8029L7.5124 30.3132H15.6594L13.1491 27.8029V3.73404H20.8432L23.1884 6.07929L22.777 1.01855H13.1491Z" fill="#396994"/>
<path fill-rule="evenodd" clip-rule="evenodd" d="M71.1458 1.01855H58.3915L57.9792 6.07929L60.3248 3.73404H68.0192V27.8029L65.5088 30.3132H73.6556L71.1458 27.8029V3.73404H76.0968L78.4423 6.07929L78.0303 1.01855H71.1458Z" fill="#396994"/>
<path fill-rule="evenodd" clip-rule="evenodd" d="M95.5305 1.01855H83.6905L83.2786 6.07929L85.6244 3.73404H92.4041V27.8029L89.8943 30.3132H98.0408L95.5305 27.8029V3.73404H103.225L105.57 6.07929L105.159 1.01855H95.5305Z" fill="#396994"/>
<path fill-rule="evenodd" clip-rule="evenodd" d="M116.275 1.01855H110.638L113.148 3.5286V27.8029L110.638 30.3132H118.785L116.275 27.8029V3.5286L118.785 1.01855H116.275Z" fill="#396994"/>
<path fill-rule="evenodd" clip-rule="evenodd" d="M56.3993 37.7256L50.1355 46.2616V37.7256H43.272V59.7154H50.1355V50.9195L56.485 59.7154H65.3517L55.9986 48.2292L64.5222 37.7256H56.3993Z" fill="#8A7B80"/>
<path fill-rule="evenodd" clip-rule="evenodd" d="M67.4666 59.7154H74.4744V37.7256H67.4666V59.7154Z" fill="#F5B324"/>
<mask id="mask1_3497_2564" style="mask-type:luminance" maskUnits="userSpaceOnUse" x="78" y="37" width="42" height="24">
<path d="M78.884 37.1289H119.93V60.0276H78.884V37.1289Z" fill="#396994"/>
</mask>
<g mask="url(#mask1_3497_2564)">
<path fill-rule="evenodd" clip-rule="evenodd" d="M87.5508 54.2181C91.4215 54.2181 93.357 52.3855 93.357 48.7205C93.357 45.0561 91.4215 43.2232 87.5508 43.2232H85.7491V54.2181H87.5508ZM78.8845 37.7256H87.8657C92.0027 37.7256 95.1489 38.6613 97.304 40.5326C99.4582 42.4034 100.536 45.1327 100.536 48.7205C100.536 51.0166 100.031 52.9883 99.0205 54.6376C98.0093 56.2869 96.5602 57.5452 94.6725 58.4137C92.7854 59.2816 90.5159 59.7154 87.8657 59.7154H78.8845V37.7256Z" fill="#F1BD96"/>
</g>
<path fill-rule="evenodd" clip-rule="evenodd" d="M9.95874 47.749V55.045C11.9465 55.0157 13.5549 53.3918 13.5549 51.3969C13.5549 49.4022 11.9465 47.7783 9.95874 47.749Z" fill="#F5B324"/>
<path fill-rule="evenodd" clip-rule="evenodd" d="M29.136 47.749V55.045C31.1237 55.0157 32.7324 53.3918 32.7324 51.3969C32.7324 49.4022 31.1237 47.7783 29.136 47.749Z" fill="#F5B324"/>
<path fill-rule="evenodd" clip-rule="evenodd" d="M29.0816 56.2566C26.4018 56.2566 24.2216 54.0765 24.2216 51.3966C24.2216 48.7171 26.4018 46.5369 29.0816 46.5369C31.7614 46.5369 33.9416 48.7171 33.9416 51.3966C33.9416 54.0765 31.7614 56.2566 29.0816 56.2566ZM9.90424 56.2566C7.22443 56.2566 5.04424 54.0765 5.04424 51.3966C5.04424 48.7171 7.22443 46.5369 9.90424 46.5369C12.5841 46.5369 14.7642 48.7171 14.7642 51.3966C14.7642 54.0765 12.5841 56.2566 9.90424 56.2566ZM35.9337 46.5577C36.7981 44.5622 37.6748 41.9437 38.0932 38.7978C38.2638 37.5173 38.3362 36.3187 38.3454 35.2221C38.3476 34.9542 38.1076 34.7501 37.8435 34.7941C35.7023 35.1527 33.1732 35.7671 30.4414 36.8343C28.9607 37.4133 27.6006 38.0559 26.3556 38.7264C25.8156 38.5226 25.264 38.3424 24.7024 38.1864C23.0575 37.6846 21.3178 37.4072 19.5142 37.4178C17.6395 37.407 15.8343 37.7081 14.1327 38.2484C13.6533 38.3874 13.1813 38.5448 12.7179 38.7195C11.4761 38.0512 10.1213 37.4108 8.6459 36.8343C5.91411 35.7671 3.38526 35.1527 1.24378 34.7941C0.979728 34.7501 0.740004 34.9542 0.74194 35.2221C0.751617 36.3187 0.823507 37.5173 0.994106 38.7978C1.41051 41.9274 2.2801 44.5342 3.14028 46.5259C1.22443 49.548 0.114014 53.1355 0.114014 56.9838C0.114014 57.8894 0.176779 58.7797 0.295673 59.6523H18.9225V56.8381H16.9444C16.6107 56.8381 16.3403 56.5677 16.3403 56.2337C16.3403 55.9 16.6107 55.6293 16.9444 55.6293H22.1094C22.4434 55.6293 22.7141 55.9 22.7141 56.2337C22.7141 56.5677 22.4434 56.8381 22.1094 56.8381H20.1313V59.6523H38.7584C38.8773 58.7797 38.9401 57.8894 38.9401 56.9838C38.9401 53.1491 37.8374 49.5731 35.9337 46.5577Z" fill="#F5B324"/>
<path fill-rule="evenodd" clip-rule="evenodd" d="M103.399 52.5796C104.314 53.1774 105.416 53.6555 106.703 54.0121C107.989 54.3691 109.243 54.5472 110.464 54.5472C112.198 54.5472 113.066 54.0746 113.066 53.1296C113.066 52.686 112.846 52.3338 112.408 52.0731C111.969 51.8126 111.121 51.5192 109.863 51.1907C107.555 50.5935 105.868 49.7297 104.801 48.6011C103.732 47.473 103.198 46.0025 103.198 44.1887C103.198 41.9712 103.97 40.2395 105.516 38.9955C107.06 37.7507 109.186 37.1289 111.894 37.1289C113.209 37.1289 114.506 37.2879 115.784 37.6061C117.061 37.9244 118.109 38.3541 118.93 38.8938L118.072 44.2468C117.328 43.7643 116.412 43.3744 115.326 43.0747C114.239 42.7758 113.209 42.626 112.237 42.626C110.673 42.626 109.891 43.08 109.891 43.9866C109.891 44.3911 110.082 44.7149 110.464 44.956C110.844 45.1971 111.56 45.4523 112.609 45.7225C115.182 46.3979 117.046 47.2896 118.2 48.3987C119.353 49.5083 119.93 50.9787 119.93 52.811C119.93 55.1065 119.134 56.8866 117.543 58.1491C115.95 59.4132 113.705 60.0442 110.807 60.0442C109.777 60.0442 108.747 59.9621 107.718 59.7984C106.688 59.6347 105.749 59.4036 104.9 59.1041C104.052 58.8058 103.361 58.4729 102.827 58.106L103.399 52.5796Z" fill="#CE6C56"/>
</g>
<defs>
<clipPath id="clip0_3497_2564">
<rect width="120" height="59.447" fill="white" transform="translate(0 0.776367)"/>
</clipPath>
</defs>
</svg>
