<svg width="251" height="72" viewBox="0 0 251 72" fill="none" xmlns="http://www.w3.org/2000/svg">
<g clip-path="url(#clip0_2319_28522)">
<path d="M75.0357 40.6639C75.8061 40.5513 76.694 40.3146 77.6772 39.9592C78.5859 39.6231 79.5463 39.1652 80.5329 38.5984C81.5169 38.0172 82.4462 37.3657 83.295 36.6622C85.5338 34.7985 87.3592 32.8467 88.7206 30.8607C90.1191 28.8196 90.8281 27.0952 90.8281 25.7356C90.8281 24.1798 90.0392 23.391 88.4833 23.391C87.2748 23.391 85.7979 23.9208 84.0931 24.9656C82.4117 26.021 80.7995 27.4163 79.3001 29.1137C77.8309 30.7962 76.6712 32.5953 75.8534 34.461C75.0323 36.3154 74.5576 38.2179 74.4418 40.1173H73.7362C72.6954 40.1173 71.7929 39.92 71.0519 39.5306C70.3146 39.1588 69.7242 38.6001 69.296 37.8697C68.8828 37.1696 68.6731 36.3137 68.6731 35.3261C68.6731 33.2131 69.3867 31.0073 70.7941 28.7699C72.2199 26.5122 74.1224 24.5372 76.4487 22.9008C80.7596 19.8976 85.7032 18.3748 91.1419 18.3748C93.1562 18.3748 95.4212 18.6059 97.873 19.0614L100.851 19.6355L101.192 19.6928C101.33 19.7161 101.452 19.7355 101.558 19.7505L101.876 19.7962C102.268 19.8574 102.58 19.9112 102.813 19.9574L103.041 19.9793L102.355 20.4964C102.174 20.6343 101.996 20.774 101.834 20.9089C101.606 21.0779 101.26 21.365 100.807 21.7609C99.8097 22.5847 98.4771 23.8374 96.845 25.4857C95.774 26.6128 94.6562 27.8882 93.5227 29.2767C92.3456 30.7089 90.8307 32.6785 89.0215 35.13C87.5771 37.0138 86.5842 38.2787 86.0708 38.8887C85.5155 39.5402 84.722 40.4033 83.712 41.4533C81.5634 43.6381 79.3403 45.2915 77.0959 46.3715L77.0462 46.4017C76.4612 45.7926 75.9821 44.9736 75.621 43.9661C75.2325 42.8815 75.0357 41.7808 75.0357 40.695V40.6639ZM79.761 29.6076C81.186 27.9713 82.7314 26.6186 84.3526 25.5876C85.981 24.5619 87.3709 24.0421 88.4833 24.0421C89.0306 24.0421 89.4522 24.1798 89.734 24.45C90.0172 24.7359 90.1607 25.1532 90.1607 25.6896C90.1607 26.5264 89.8587 27.5383 89.2625 28.697C88.6781 29.8317 87.8258 31.0764 86.73 32.3954C85.663 33.6396 84.4051 34.8711 82.9927 36.0548C80.346 38.2341 77.6874 39.5635 75.0887 40.007C75.2071 38.3055 75.6677 36.5357 76.4592 34.7449C77.2542 32.9127 78.3646 31.1844 79.761 29.6076ZM111.339 18.5543C111.339 19.206 110.338 19.5366 108.366 19.5366C107.523 19.5366 106.585 19.4581 105.573 19.3035C106.193 18.9431 106.903 18.6455 107.685 18.4177C108.566 18.1913 109.392 18.0766 110.139 18.0766C110.935 18.0766 111.339 18.2373 111.339 18.5543ZM109.979 17.4258C108.411 17.4258 106.928 17.7924 105.573 18.5147L104.428 19.109H104.464C104.458 19.1121 104.452 19.1151 104.446 19.1182L104.089 19.0334L101.023 18.4604C97.9249 17.8043 95.0666 17.4715 92.5281 17.4715C86.2964 17.4715 80.8044 19.1063 76.2051 22.3292C74.5539 23.4613 73.1101 24.7642 71.9141 26.2011C70.6868 27.6549 69.7259 29.1762 69.0587 30.7227C68.3902 32.3021 68.0513 33.851 68.0513 35.3261C68.0513 36.9672 68.5659 38.2948 69.5798 39.2726C70.5784 40.2498 71.9461 40.7451 73.6452 40.7451H74.3945C74.4969 43.2484 75.1891 45.2379 76.4533 46.6624L76.447 46.6644C74.0462 47.7398 71.5975 48.2853 69.1686 48.2853C68.0037 48.2853 66.9133 48.1171 65.9258 47.7847C64.8958 47.4532 63.996 46.9878 63.2524 46.4023C62.4937 45.7863 61.9055 45.0787 61.5051 44.2996C61.1049 43.5065 60.9018 42.6563 60.9018 41.7733C60.9018 40.4243 61.3085 39.185 62.1103 38.0906C62.9095 37.0003 63.8824 36.3569 65.0025 36.178L65.0929 36.1636L65.0248 35.5796L64.9244 35.5989C64.0484 35.7697 63.2469 36.1547 62.541 36.744C61.8057 37.3623 61.2387 38.1151 60.8573 38.9791C60.444 39.8595 60.2344 40.7843 60.2344 41.7272C60.2344 43.1041 60.6383 44.3506 61.4338 45.4306C62.197 46.5259 63.288 47.4011 64.6762 48.0327C66.0308 48.6473 67.5884 48.9592 69.3055 48.9592C71.8066 48.9592 74.3426 48.3694 76.8566 47.1989L76.9296 47.15C78.2194 48.3809 79.805 49.0047 81.6438 49.0047C83.7482 49.0047 85.574 48.3172 87.0697 46.9613L87.1373 46.9L86.7269 46.3899L86.6536 46.4461C85.7114 47.171 84.8937 47.6681 84.2237 47.9241C83.5106 48.1943 82.6427 48.3311 81.6438 48.3311C80.0956 48.3311 78.7228 47.8426 77.5608 46.879C80.143 45.6279 82.5702 43.9411 84.7753 41.8669C86.9516 39.8529 89.4787 36.915 92.2859 33.1353L94.9907 29.5091C95.7275 28.492 96.5367 27.4477 97.3955 26.405C98.2526 25.3651 99.0541 24.4519 99.7766 23.6919C100.436 23.0105 101.137 22.3567 101.86 21.7482C102.573 21.1483 103.325 20.5936 104.093 20.0999C105.245 20.2645 106.369 20.3481 107.434 20.3481C108.818 20.3481 109.938 20.1916 110.762 19.8829C111.603 19.5629 112.029 19.1312 112.029 18.6C112.029 17.8206 111.339 17.4258 109.979 17.4258Z" fill="#1B2530"/>
<path d="M98.3944 38.8486C98.3522 38.9054 98.2712 38.9947 98.1463 39.1214C97.9983 39.308 97.9449 39.3699 97.9264 39.3886C97.9036 39.4117 97.7014 39.6409 97.5354 39.8296C96.2547 41.3056 95.3768 42.2845 94.9252 42.7401C93.3003 44.4563 92.1003 45.326 91.3582 45.326C91.0467 45.326 90.9081 45.2002 90.9081 44.9174C90.9081 44.2086 92.3083 41.9973 95.0684 38.3458C95.4626 37.8412 95.7127 37.5198 95.82 37.381L96.6386 36.2782C97.7872 34.6862 98.3805 33.8694 98.4504 33.785L98.8055 33.3867L97.3537 33.4432L97.1885 33.6655C96.8306 34.1779 96.3648 34.8097 95.804 35.5447C94.4238 37.4075 93.2917 38.9673 92.4386 40.1827C91.986 40.8534 91.5179 41.6201 91.0484 42.4607C90.4743 43.4797 90.1953 44.2532 90.1953 44.8255C90.1953 45.5939 90.5972 46.0003 91.3582 46.0003C92.0096 46.0003 92.7738 45.5942 93.6902 44.7624C94.3263 44.2432 95.4766 43.0664 97.1092 41.2652C97.5798 40.744 97.9561 40.3025 98.2276 39.9517C98.4381 39.6781 98.6432 39.4249 98.8377 39.1986L98.9039 39.1214L98.4521 38.7706L98.3944 38.8486Z" fill="#1B2530"/>
<path d="M101.62 28.2344C101.335 28.2344 101.051 28.4004 100.779 28.7234C100.49 29.031 100.344 29.3697 100.344 29.73C100.344 30.073 100.547 30.262 100.916 30.262C101.202 30.262 101.478 30.1038 101.735 29.796C102.007 29.5048 102.154 29.1831 102.17 28.8395V28.8352C102.17 28.4477 101.975 28.2344 101.62 28.2344Z" fill="#1B2530"/>
<path d="M30.4591 0.576172H52.7337L53.6863 12.3985L48.2596 6.919H30.4591V63.1462L36.2658 69.0093H30.4591H23.2249H17.4181L23.2249 63.1462V6.919H5.42451L0 12.3985L0.952474 0.576172H23.2249H24.9394H28.7466H30.4591Z" fill="#1B2530"/>
<path d="M87.8606 63.7235C92.1116 63.7235 96.0945 62.907 99.8065 61.2726C103.518 59.6385 106.756 57.4606 109.515 54.7367C112.277 52.0137 114.465 48.8903 116.084 45.3652C117.702 41.8424 118.512 38.1899 118.512 34.4085C118.512 30.6291 117.702 26.9767 116.084 23.4517C114.465 19.929 112.277 16.8055 109.515 14.0802C106.756 11.3582 103.518 9.17873 99.8065 7.54534C96.0945 5.91114 92.1116 5.09351 87.8606 5.09351C83.607 5.09351 79.6266 5.91114 75.9144 7.54534C72.2024 9.17873 68.9651 11.3582 66.2055 14.0802C63.4434 16.8055 61.254 19.929 59.6365 23.4517C58.019 26.9767 57.2092 30.6291 57.2092 34.4085C57.2092 38.1899 58.019 41.8424 59.6365 45.3652C61.254 48.8903 63.4434 52.0137 66.2055 54.7367C68.9651 57.4606 72.2024 59.6385 75.9144 61.2726C79.6266 62.907 83.607 63.7235 87.8606 63.7235ZM87.8606 0C93.062 0 97.9328 0.91269 102.471 2.73973C107.008 4.56595 110.976 7.06461 114.37 10.236C117.764 13.4077 120.445 17.1078 122.414 21.3368C124.38 25.5667 125.366 30.0836 125.366 34.8892C125.366 39.695 124.38 44.2287 122.414 48.4897C120.445 52.7509 117.764 56.4523 114.37 59.5904C110.976 62.7307 107.008 65.2139 102.471 67.0398C97.9328 68.866 93.062 69.7784 87.8606 69.7784C82.6549 69.7784 77.7838 68.866 73.2475 67.0398C68.711 65.2139 64.7452 62.7307 61.349 59.5904C57.9551 56.4523 55.2736 52.7509 53.3073 48.4897C51.3386 44.2287 50.3555 39.695 50.3555 34.8892C50.3555 30.0836 51.3386 25.5667 53.3073 21.3368C55.2736 17.1078 57.9551 13.4077 61.349 10.236C64.7452 7.06461 68.711 4.56595 73.2475 2.73973C77.7838 0.91269 82.6549 0 87.8606 0Z" fill="#1B2530"/>
<path d="M151.535 0.576172H167.464L168.417 12.3985L162.99 6.919H151.535V63.1462L157.342 69.0093H151.535H144.301H138.494L144.301 63.1462V6.919H126.501L121.074 12.3985L122.027 0.576172H144.301H146.014H149.823H151.535Z" fill="#1B2530"/>
<path d="M201.893 0.576172H224.167L225.12 12.3985L219.693 6.919H201.893V63.1462L207.699 69.0093H201.893H194.659H188.852L194.659 63.1462V6.919H178.974L173.547 12.3985L174.499 0.576172H194.659H196.371H200.18H201.893Z" fill="#1B2530"/>
<path d="M245.193 63.1462L251 69.0093H245.193H237.959H232.152L237.959 63.1462V6.43939L232.152 0.576172H237.959H245.193H251L245.193 6.43939V63.1462Z" fill="#1B2530"/>
</g>
<defs>
<clipPath id="clip0_2319_28522">
<rect width="251" height="72" fill="white"/>
</clipPath>
</defs>
</svg>
