<svg width="20" height="20" viewBox="0 0 20 20" fill="none" xmlns="http://www.w3.org/2000/svg">
<path d="M14.0571 2.00252C13.9653 2.01239 13.8794 2.05304 13.8136 2.11786L3.14544 12.786C3.0912 12.8407 3.05342 12.9096 3.03639 12.9848L2.01061 17.4982C1.97884 17.6353 2.01948 17.7791 2.11837 17.8793C2.21711 17.9793 2.36036 18.0218 2.49787 17.9919L7.01131 16.9661C7.08644 16.9491 7.15542 16.9113 7.21008 16.8571L17.8782 6.18895C17.9562 6.11181 18 6.00677 18 5.8973C18 5.78768 17.9562 5.68264 17.8782 5.60551L14.3906 2.11789C14.3026 2.03116 14.1801 1.98878 14.0571 2.00252ZM14.1021 2.9898L17.0127 5.90042L6.92156 15.985L4.01094 13.0808L14.1021 2.9898ZM3.67097 13.8953L6.1072 16.3316L2.95299 17.0495L3.67097 13.8953Z" fill="#1B2530"/>
</svg>
