<svg width="24" height="24" viewBox="0 0 24 24" fill="none" xmlns="http://www.w3.org/2000/svg">
<path d="M11.9458 12C9.18898 12 6.9458 9.75682 6.9458 7C6.9458 4.24318 9.18898 2 11.9458 2C14.7026 2 16.9458 4.24318 16.9458 7C16.9458 9.75682 14.7026 12 11.9458 12ZM11.9458 3.25C9.87773 3.25 8.1958 4.93193 8.1958 7C8.1958 9.06807 9.87773 10.75 11.9458 10.75C14.0139 10.75 15.6958 9.06807 15.6958 7C15.6958 4.93193 14.0139 3.25 11.9458 3.25Z" fill="#1B2530"/>
<path d="M19.4453 20.75H4.44531V18.25C4.44531 14.1143 7.80971 10.75 11.9453 10.75C16.0809 10.75 19.4453 14.1144 19.4453 18.25V20.75ZM5.69531 19.5H18.1953V18.25C18.1953 14.8037 15.3916 12 11.9453 12C8.49903 12 5.69531 14.8037 5.69531 18.25V19.5Z" fill="#1B2530"/>
</svg>
