<svg width="16" height="16" viewBox="0 0 16 16" fill="none" xmlns="http://www.w3.org/2000/svg">
<path fill-rule="evenodd" clip-rule="evenodd" d="M8 15.04C11.8881 15.04 15.04 11.8881 15.04 8C15.04 4.11192 11.8881 0.96 8 0.96C4.11192 0.96 0.96 4.11192 0.96 8C0.96 11.8881 4.11192 15.04 8 15.04ZM8 16C12.4183 16 16 12.4183 16 8C16 3.58172 12.4183 0 8 0C3.58172 0 0 3.58172 0 8C0 12.4183 3.58172 16 8 16Z" fill="#1B2530"/>
<path d="M7.30138 9.73444V7.72484C8.03525 7.6907 8.61125 7.53284 9.02938 7.25124C9.44752 6.9611 9.65658 6.5259 9.65658 5.94564V5.76644C9.65658 5.28857 9.51152 4.93017 9.22138 4.69124C8.93978 4.4523 8.55152 4.33284 8.05658 4.33284C7.54458 4.33284 7.13498 4.47364 6.82778 4.75524C6.52058 5.03684 6.30725 5.39524 6.18778 5.83044L5.22778 5.47204C5.31312 5.19044 5.43258 4.9259 5.58618 4.67844C5.73978 4.42244 5.93178 4.20057 6.16218 4.01284C6.40112 3.8251 6.67845 3.67577 6.99418 3.56484C7.31845 3.4539 7.68538 3.39844 8.09498 3.39844C8.50458 3.39844 8.87152 3.45817 9.19578 3.57764C9.52858 3.68857 9.81018 3.8507 10.0406 4.06404C10.271 4.26884 10.4502 4.52057 10.5782 4.81924C10.7062 5.1179 10.7702 5.4507 10.7702 5.81764C10.7702 6.2187 10.6977 6.57284 10.5526 6.88004C10.4075 7.1787 10.2198 7.4347 9.98938 7.64804C9.75898 7.86137 9.49445 8.0363 9.19578 8.17284C8.90565 8.30084 8.61125 8.39044 8.31258 8.44164V9.73444H7.30138ZM7.85178 12.6016C7.50192 12.6016 7.25445 12.5291 7.10938 12.384C6.97285 12.239 6.90458 12.0555 6.90458 11.8336V11.6032C6.90458 11.3814 6.97285 11.1979 7.10938 11.0528C7.25445 10.9078 7.50192 10.8352 7.85178 10.8352C8.20165 10.8352 8.44485 10.9078 8.58138 11.0528C8.72645 11.1979 8.79898 11.3814 8.79898 11.6032V11.8336C8.79898 12.0555 8.72645 12.239 8.58138 12.384C8.44485 12.5291 8.20165 12.6016 7.85178 12.6016Z" fill="#1B2530"/>
</svg>
