<svg width="24" height="24" viewBox="0 0 24 24" fill="none" xmlns="http://www.w3.org/2000/svg">
<path d="M15.2277 16.3191L15.196 16.2925L15.1639 16.3188C13.7824 17.4529 12.0092 18.1333 10.0917 18.1333C5.65849 18.1333 2.05 14.5248 2.05 10.0917C2.05 5.65849 5.65849 2.05 10.0917 2.05C14.5248 2.05 18.1333 5.65849 18.1333 10.0917C18.1333 12.0091 17.453 13.7828 16.3394 15.1645L16.3085 15.2028L16.3463 15.2343L21.9259 19.8874L20.8143 20.999L15.2277 16.3191ZM3.60983 10.0917C3.60983 13.6672 6.51609 16.5735 10.0917 16.5735C13.6672 16.5735 16.5735 13.6672 16.5735 10.0917C16.5735 6.51616 13.6672 3.60983 10.0917 3.60983C6.51616 3.60983 3.60983 6.51616 3.60983 10.0917Z" fill="#F3F3EA" stroke="#F3F3EA" stroke-width="0.1"/>
</svg>
