<svg width="16" height="16" viewBox="0 0 16 16" fill="none" xmlns="http://www.w3.org/2000/svg">
<path d="M7.44747 11.3515C7.56847 11.2892 7.763 11.2883 7.88588 11.3515L10.1386 12.5122C10.6185 12.7594 10.9331 12.5345 10.8416 12.0115L10.4114 9.5533C10.3883 9.42112 10.4476 9.23956 10.5468 9.14466L12.3693 7.40381C12.7577 7.0328 12.6367 6.67003 12.1008 6.59375L9.58226 6.23517C9.44687 6.21585 9.28885 6.1045 9.2275 5.98256L8.10114 3.74604C7.8612 3.26938 7.47162 3.27024 7.23202 3.74604L6.10567 5.98256C6.04517 6.10282 5.88835 6.21552 5.75107 6.23517L3.23239 6.59375C2.6958 6.67017 2.57615 7.03331 2.96383 7.40381L4.78635 9.14466C4.88421 9.23822 4.94522 9.41927 4.92174 9.5533L4.49156 12.0115C4.39987 12.5354 4.71539 12.7591 5.19474 12.5122L7.44747 11.3515ZM5.53773 13.1514C4.51764 13.677 3.57021 13.0033 3.7651 11.8894L4.1718 9.56624L2.44936 7.9211C1.62412 7.13271 1.98525 6.0415 3.12652 5.87893L5.50673 5.53999L6.57123 3.42627C7.0811 2.41348 8.25186 2.41301 8.76225 3.42627L9.82674 5.53999L12.2068 5.87893C13.3474 6.04134 13.7097 7.1322 12.8839 7.9211L11.1617 9.56624L11.5682 11.8894C11.7631 13.0026 10.8163 13.6773 9.79557 13.1514L7.66677 12.0547L5.53773 13.1514Z" fill="#1B2530"/>
</svg>
