<svg width="88" height="25" viewBox="0 0 88 25" fill="none" xmlns="http://www.w3.org/2000/svg">
<path d="M26.3067 14.1195C26.5768 14.0804 26.8881 13.9982 27.2328 13.8748C27.5514 13.7581 27.8881 13.5991 28.234 13.4023C28.579 13.2005 28.9048 12.9743 29.2024 12.73C29.9873 12.0829 30.6273 11.4052 31.1046 10.7156C31.5949 10.0069 31.8435 9.40814 31.8435 8.93605C31.8435 8.39585 31.5669 8.12195 31.0214 8.12195C30.5977 8.12195 30.0799 8.3059 29.4822 8.66869C28.8927 9.03515 28.3275 9.51964 27.8018 10.109C27.2867 10.6932 26.8801 11.3179 26.5934 11.9657C26.3055 12.6096 26.1391 13.2702 26.0985 13.9297H25.8511C25.4862 13.9297 25.1698 13.8612 24.91 13.726C24.6515 13.5969 24.4445 13.4029 24.2944 13.1493C24.1495 12.9062 24.076 12.609 24.076 12.2661C24.076 11.5324 24.3262 10.7665 24.8196 9.98962C25.3195 9.20572 25.9865 8.51996 26.8021 7.95176C28.3135 6.90897 30.0467 6.38021 31.9535 6.38021C32.6597 6.38021 33.4538 6.46045 34.3134 6.61861L35.3576 6.81796L35.4772 6.83787C35.5253 6.84595 35.5681 6.85269 35.6055 6.85788L35.7167 6.87376C35.8543 6.89502 35.9636 6.91368 36.0452 6.92975L36.1254 6.93735L35.8849 7.11687C35.8212 7.16478 35.7591 7.21327 35.702 7.26012C35.6221 7.31881 35.5008 7.41848 35.3421 7.55596C34.9924 7.84198 34.5252 8.27694 33.953 8.84927C33.5775 9.24064 33.1856 9.68349 32.7882 10.1656C32.3755 10.6629 31.8444 11.3468 31.2101 12.198C30.7037 12.8521 30.3556 13.2913 30.1756 13.5031C29.9809 13.7293 29.7027 14.029 29.3486 14.3936C28.5953 15.1522 27.8159 15.7263 27.029 16.1013L27.0116 16.1118C26.8065 15.9003 26.6385 15.6159 26.5119 15.2661C26.3757 14.8895 26.3067 14.5073 26.3067 14.1303V14.1195ZM27.9634 10.2805C28.463 9.71235 29.0048 9.24266 29.5732 8.88468C30.1441 8.52852 30.6314 8.34803 31.0214 8.34803C31.2133 8.34803 31.3611 8.39585 31.4599 8.48965C31.5592 8.58894 31.6095 8.73382 31.6095 8.92008C31.6095 9.21063 31.5036 9.56198 31.2946 9.96431C31.0897 10.3583 30.7909 10.7905 30.4067 11.2485C30.0326 11.6805 29.5916 12.1081 29.0964 12.5191C28.1685 13.2758 27.2364 13.7374 26.3253 13.8914C26.3668 13.3006 26.5283 12.6861 26.8058 12.0643C27.0845 11.4281 27.4738 10.828 27.9634 10.2805ZM39.0344 6.44256C39.0344 6.66883 38.6837 6.78361 37.9922 6.78361C37.6967 6.78361 37.3677 6.75638 37.0129 6.7027C37.2304 6.57753 37.4794 6.47421 37.7535 6.39513C38.0625 6.31652 38.3519 6.27669 38.6137 6.27669C38.8929 6.27669 39.0344 6.33249 39.0344 6.44256V6.44256ZM38.5579 6.0507C38.0079 6.0507 37.4881 6.17799 37.0131 6.4288L36.6117 6.63516H36.6241C36.622 6.63622 36.62 6.63728 36.6178 6.63834L36.4926 6.6089L35.4179 6.40994C34.3316 6.18212 33.3295 6.06658 32.4395 6.06658C30.2547 6.06658 28.3292 6.6342 26.7167 7.75328C26.1378 8.14638 25.6316 8.59875 25.2123 9.09768C24.782 9.60248 24.4451 10.1307 24.2112 10.6677C23.9768 11.2161 23.858 11.7539 23.858 12.2661C23.858 12.8359 24.0384 13.2969 24.3939 13.6364C24.744 13.9757 25.2235 14.1477 25.8192 14.1477H26.0819C26.1178 15.0169 26.3605 15.7077 26.8037 16.2023L26.8015 16.203C25.9598 16.5764 25.1013 16.7658 24.2497 16.7658C23.8413 16.7658 23.459 16.7074 23.1128 16.592C22.7517 16.4769 22.4362 16.3153 22.1755 16.112C21.9095 15.8981 21.7033 15.6524 21.5629 15.3819C21.4226 15.1065 21.3514 14.8113 21.3514 14.5047C21.3514 14.0363 21.494 13.606 21.7751 13.226C22.0553 12.8474 22.3964 12.624 22.7891 12.5619L22.8208 12.5569L22.7969 12.3541L22.7617 12.3608C22.4546 12.4201 22.1736 12.5538 21.9261 12.7584C21.6683 12.9731 21.4695 13.2345 21.3358 13.5345C21.1909 13.8402 21.1174 14.1613 21.1174 14.4887C21.1174 14.9668 21.259 15.3996 21.5379 15.7746C21.8055 16.1549 22.188 16.4588 22.6747 16.6781C23.1496 16.8915 23.6957 16.9998 24.2977 16.9998C25.1746 16.9998 26.0637 16.795 26.9451 16.3886L26.9707 16.3716C27.4229 16.799 27.9788 17.0156 28.6235 17.0156C29.3613 17.0156 30.0014 16.7769 30.5258 16.3061L30.5495 16.2848L30.4056 16.1077L30.3799 16.1272C30.0496 16.3789 29.7629 16.5515 29.528 16.6404C29.278 16.7342 28.9737 16.7817 28.6235 16.7817C28.0807 16.7817 27.5994 16.6121 27.192 16.2775C28.0973 15.8431 28.9483 15.2574 29.7214 14.5372C30.4844 13.8379 31.3704 12.8178 32.3546 11.5054L33.3029 10.2463C33.5612 9.89312 33.8449 9.53052 34.146 9.16849C34.4465 8.80742 34.7275 8.49032 34.9808 8.22643C35.2121 7.98985 35.4578 7.76281 35.7112 7.55154C35.9613 7.34325 36.2247 7.15064 36.494 6.9792C36.898 7.03635 37.2921 7.0654 37.6655 7.0654C38.1508 7.0654 38.5433 7.01104 38.8324 6.90387C39.127 6.79275 39.2763 6.64286 39.2763 6.45843C39.2763 6.1878 39.0346 6.0507 38.5579 6.0507" fill="#F3F3EA"/>
<path d="M34.4974 13.489C34.4826 13.5087 34.4542 13.5397 34.4104 13.5837C34.3585 13.6485 34.3398 13.67 34.3333 13.6765C34.3253 13.6845 34.2544 13.7641 34.1962 13.8296C33.7472 14.3421 33.4394 14.682 33.2811 14.8402C32.7114 15.4361 32.2907 15.7381 32.0305 15.7381C31.9213 15.7381 31.8727 15.6944 31.8727 15.5962C31.8727 15.3501 32.3636 14.5823 33.3313 13.3144C33.4695 13.1392 33.5572 13.0276 33.5948 12.9794L33.8818 12.5965C34.2845 12.0437 34.4925 11.7601 34.517 11.7308L34.6415 11.5925L34.1325 11.6121L34.0746 11.6893C33.9491 11.8672 33.7858 12.0866 33.5892 12.3418C33.1053 12.9886 32.7084 13.5302 32.4093 13.9522C32.2506 14.1851 32.0865 14.4513 31.9219 14.7432C31.7206 15.097 31.6228 15.3656 31.6228 15.5643C31.6228 15.8311 31.7637 15.9722 32.0305 15.9722C32.2589 15.9722 32.5268 15.8312 32.8481 15.5424C33.0711 15.3621 33.4744 14.9535 34.0468 14.3281C34.2118 14.1471 34.3437 13.9938 34.4389 13.872C34.5127 13.777 34.5846 13.6891 34.6528 13.6105L34.676 13.5837L34.5176 13.4619L34.4974 13.489Z" fill="#F3F3EA"/>
<path d="M35.6275 9.80328C35.5273 9.80328 35.4277 9.86091 35.3324 9.97309C35.2312 10.0799 35.1799 10.1975 35.1799 10.3226C35.1799 10.4417 35.2511 10.5073 35.3805 10.5073C35.4807 10.5073 35.5777 10.4524 35.6676 10.3455C35.7631 10.2444 35.8144 10.1327 35.8201 10.0134V10.0119C35.8201 9.87736 35.7517 9.80328 35.6275 9.80328Z" fill="#F3F3EA"/>
<path d="M10.6789 0.199899H18.4883L18.8223 4.30486L16.9197 2.40227H10.6789V21.9256L12.7147 23.9614H10.6789H8.14259H6.10675L8.14259 21.9256V2.40227H1.90182L0 4.30486L0.333935 0.199899H8.14259H8.74369H10.0785H10.6789Z" fill="#F3F3EA"/>
<path d="M30.8033 22.1261C32.2937 22.1261 33.6901 21.8426 34.9915 21.2751C36.2929 20.7077 37.4279 19.9515 38.3954 19.0057C39.3638 18.0602 40.1307 16.9757 40.6985 15.7517C41.2656 14.5285 41.5495 13.2603 41.5495 11.9473C41.5495 10.635 41.2656 9.36682 40.6985 8.14287C40.1307 6.9197 39.3638 5.83515 38.3954 4.88886C37.4279 3.94372 36.2929 3.18696 34.9915 2.61981C33.6901 2.05238 32.2937 1.76848 30.8033 1.76848C29.312 1.76848 27.9165 2.05238 26.615 2.61981C25.3136 3.18696 24.1786 3.94372 23.2111 4.88886C22.2427 5.83515 21.4751 6.9197 20.908 8.14287C20.3409 9.36682 20.057 10.635 20.057 11.9473C20.057 13.2603 20.3409 14.5285 20.908 15.7517C21.4751 16.9757 22.2427 18.0602 23.2111 19.0057C24.1786 19.9515 25.3136 20.7077 26.615 21.2751C27.9165 21.8426 29.312 22.1261 30.8033 22.1261ZM30.8033 -9.83242e-05C32.6269 -9.83242e-05 34.3346 0.316808 35.9258 0.951198C37.5162 1.5853 38.9075 2.45289 40.0974 3.55408C41.2873 4.65536 42.2274 5.94012 42.9176 7.40853C43.6071 8.87722 43.9525 10.4456 43.9525 12.1142C43.9525 13.7829 43.6071 15.3571 42.9176 16.8366C42.2274 18.3162 41.2873 19.6014 40.0974 20.691C38.9075 21.7814 37.5162 22.6436 35.9258 23.2776C34.3346 23.9117 32.6269 24.2285 30.8033 24.2285C28.9782 24.2285 27.2704 23.9117 25.68 23.2776C24.0895 22.6436 22.6991 21.7814 21.5084 20.691C20.3185 19.6014 19.3784 18.3162 18.689 16.8366C17.9988 15.3571 17.6541 13.7829 17.6541 12.1142C17.6541 10.4456 17.9988 8.87722 18.689 7.40853C19.3784 5.94012 20.3185 4.65536 21.5084 3.55408C22.6991 2.45289 24.0895 1.5853 25.68 0.951198C27.2704 0.316808 28.9782 -9.83242e-05 30.8033 -9.83242e-05" fill="#F3F3EA"/>
<path d="M53.1278 0.199899H58.7124L59.0463 4.30486L57.1437 2.40227H53.1278V21.9256L55.1637 23.9614H53.1278H50.5915H48.5557L50.5915 21.9256V2.40227H44.3507L42.4482 4.30486L42.7821 0.199899H50.5915H51.1919H52.5274H53.1278Z" fill="#F3F3EA"/>
<path d="M70.7825 0.199899H78.5919L78.9258 4.30486L77.0233 2.40227H70.7825V21.9256L72.8183 23.9614H70.7825H68.2462H66.2103L68.2462 21.9256V2.40227H62.7471L60.8445 4.30486L61.1784 0.199899H68.2462H68.8466H70.1821H70.7825Z" fill="#F3F3EA"/>
<path d="M85.9642 21.9256L88.0001 23.9614H85.9642H83.4279H81.3921L83.4279 21.9256V2.23574L81.3921 0.199899H83.4279H85.9642H88.0001L85.9642 2.23574V21.9256Z" fill="#F3F3EA"/>
</svg>
